PathFileType	4	(X/Y/Z)	1_coords_data.trc
DataRate	CameraRate	NumFrames	NumMarkers	Units	OrigDataRate	OrigDataStartFrame	OrigNumFrames
30.0	30.0	9	21	m	30.0	42	62
Frame#	Time	THUMB_TIP	THUMB_IP	THUMB_MCP	THUMB_CMC	INDEX_TIP	INDEX_DIP	INDEX_PIP	INDEX_MCP	MIDDLE_TIP	MIDDLE_DIP	MIDDLE_PIP	MIDDLE_MCP	RING_TIP	RING_DIP	RING_PIP	RING_MCP	PINKY_TIP	PINKY_DIP	PINKY_PIP	PINKY_MCP	WRIST
X1	Y1	Z1	X2	Y2	Z2	X3	Y3	Z3	X4	Y4	Z4	X5	Y5	Z5	X6	Y6	Z6	X7	Y7	Z7	X8	Y8	Z8	X9	Y9	Z9	X10	Y10	Z10	X11	Y11	Z11	X12	Y12	Z12	X13	Y13	Z13	X14	Y14	Z14	X15	Y15	Z15	X16	Y16	Z16	X17	Y17	Z17	X18	Y18	Z18	X19	Y19	Z19	X20	Y20	Z20	X21	Y21	Z21
41	1.3666666666666667	0.04012329864501953	-0.032474998474121095	0.9724199829101563	0.02260799980163574	-0.02591749954223633	0.9917509765625	0.0046617498397827145	-0.019511699676513672	1.0146099853515624	-0.010987099647521972	0.006379799842834473	1.0245999755859374	0.01598960018157959	-0.021620800018310547	0.9067239990234375	-4.4824298471212e-05	-0.02506489944458008	0.9207670288085937	-0.014419599533081055	-0.026043100357055662	0.938375	-0.02397089958190918	-0.019208999633789064	0.97252197265625	-0.009963250160217286	0.000951578974723815	0.8806840209960938	-0.021428600311279297	0.00014697900414466802	0.9012210083007812	-0.03199099922180176	-0.0009347119927406311	0.926905029296875	-0.032919998168945315	0.001850119948387146	0.9654509887695313	-0.008005270004272461	0.02352549934387207	0.8921240234375	-0.020441299438476564	0.02351849937438965	0.910156005859375	-0.03171820068359375	0.023394899368286134	0.9332670288085938	-0.03242779922485352	0.022945999145507812	0.9663660278320313	0.002869169950485229	0.06547599792480469	0.9261580200195313	-0.008691020011901855	0.059291900634765624	0.9393319702148437	-0.018360099792480468	0.05293880081176758	0.9521010131835937	-0.027986299514770507	0.04195769882202149	0.972343994140625	-0.039879199981689456	0.025326499938964842	1.038800048828125
42	1.4	0.032649398803710934	-0.0408917007446289	0.971156982421875	0.01559239959716797	-0.031931699752807616	0.9899550170898438	-0.002081029891967773	-0.023902000427246092	1.0123599853515626	-0.014423600196838379	0.0033854598999023427	1.02443994140625	0.015735899925231934	-0.01681209945678711	0.9050800170898438	-0.001547829985618591	-0.01917639923095703	0.9178690185546875	-0.016811500549316405	-0.019711299896240233	0.934739013671875	-0.02681369972229004	-0.01465750026702881	0.9690650024414063	-0.004460350036621093	0.01160849952697754	0.8803870239257813	-0.01703249931335449	0.010375200271606445	0.9002849731445313	-0.02920050048828125	0.008364620208740235	0.9254580078125	-0.033036598205566405	0.007806550025939942	0.9639119873046875	-0.001455340027809143	0.03238510131835937	0.8932730102539063	-0.014521300315856933	0.03225189971923828	0.9110020141601562	-0.026770500183105467	0.03159729957580566	0.933447021484375	-0.029620399475097658	0.028348600387573242	0.9665469970703126	0.011923600196838378	0.07010469818115235	0.931094970703125	-0.000658775985240936	0.06397019958496093	0.9437520141601563	-0.01140089988708496	0.05747560119628906	0.9555609741210938	-0.023066999435424805	0.046054100036621096	0.974447021484375	-0.04065560150146484	0.025538200378417968	1.038510009765625
43	1.4333333333333333	0.024503000259399416	-0.04526300048828125	0.968114990234375	0.008681690216064453	-0.03442879867553711	0.9867860107421875	-0.008173769950866699	-0.02550399971008301	1.008989990234375	-0.01809709930419922	0.002372410058975219	1.0233599853515625	0.015911700248718262	-0.011135299682617188	0.9031069946289062	-0.0020803101062774657	-0.012477199554443359	0.9152739868164063	-0.01784980010986328	-0.012936800003051759	0.9314219970703125	-0.02798929977416992	-0.009621780395507812	0.96564697265625	0.001716089963912963	0.02149150085449219	0.8803209838867188	-0.012165599822998047	0.019916500091552734	0.89968701171875	-0.025827899932861328	0.01710129928588867	0.9236749877929687	-0.032466899871826174	0.01360260009765625	0.962156982421875	0.005529990196228027	0.040373001098632816	0.8944600219726563	-0.008211420059204102	0.04020740127563477	0.9119140014648438	-0.021832300186157227	0.03889680099487305	0.93368798828125	-0.027189800262451172	0.03350960159301758	0.96627001953125	0.01924410057067871	0.07406690216064453	0.9352579956054687	0.006039100170135498	0.0680624008178711	0.9472529907226562	-0.005383619785308838	0.061556198120117187	0.9583519897460937	-0.018929100036621092	0.04976940155029297	0.9759730224609375	-0.04165840148925781	0.026677099227905274	1.0375799560546874
44	1.4666666666666666	0.018816699981689455	-0.04680289840698242	0.9653519897460937	0.003809799909591675	-0.034961898803710936	0.9839149780273437	-0.0125492000579834	-0.025397600173950194	1.00627001953125	-0.02075950050354004	0.0026868700981140126	1.0220800170898436	0.015315500259399414	-0.0075264801979064945	0.9009320068359375	-0.002847399950027466	-0.007993020057678223	0.912989990234375	-0.018746599197387696	-0.008164119720458985	0.92902197265625	-0.029021099090576173	-0.005661200046539307	0.9635999755859375	0.004679520130157471	0.02715049934387207	0.8802139892578125	-0.009573180198669434	0.02556019973754883	0.899114990234375	-0.023964500427246092	0.022553800582885742	0.9226799926757813	-0.03173710060119629	0.017613500595092774	0.96060498046875	0.009460100173950195	0.04504819869995117	0.8952490234375	-0.004429100036621093	0.04505670166015625	0.9123829956054688	-0.018726299285888672	0.04363119888305664	0.933468017578125	-0.025432300567626954	0.03707899856567383	0.9655020141601562	0.024111900329589844	0.07621540069580078	0.93760498046875	0.010366499900817871	0.07041960144042969	0.9492520141601563	-0.0017831000089645382	0.06409420013427734	0.9596589965820312	-0.016377199172973634	0.052349300384521485	0.9766719970703125	-0.042474498748779295	0.02797130012512207	1.036510009765625
45	1.5	0.014297200202941894	-0.048118198394775394	0.9630910034179687	0.000176835998892784	-0.03556740188598633	0.9819099731445312	-0.01565880012512207	-0.025480300903320312	1.0043499755859375	-0.022728700637817383	0.0028086400032043446	1.0209199829101563	0.014761199951171875	-0.005882120132446289	0.89985498046875	-0.00332256007194519	-0.005967120170593262	0.911239990234375	-0.019457300186157225	-0.005848519802093506	0.9271810302734375	-0.02990239906311035	-0.003701299905776977	0.9620819702148438	0.007582389831542969	0.02937030029296875	0.8806170043945313	-0.0072152099609375	0.028068099975585938	0.8991129760742187	-0.022689399719238282	0.025054100036621094	0.9221010131835937	-0.03169000053405762	0.019735500335693358	0.9597000122070313	0.01252750015258789	0.046798900604248045	0.8959990234375	-0.0019338500499725341	0.047109901428222654	0.9127160034179688	-0.01692300033569336	0.04580199813842773	0.9331090087890626	-0.024801500320434572	0.038844501495361325	0.9648170166015625	0.026244300842285156	0.07702490234375	0.938739013671875	0.012148599624633789	0.07132530212402344	0.9499210205078125	-0.000181222006678581	0.06520349884033202	0.9601539916992188	-0.015359399795532226	0.05351409912109375	0.9767059936523438	-0.043088401794433594	0.028604299545288085	1.0352099609375
46	1.5333333333333334	0.010783900260925293	-0.049311500549316406	0.9612780151367187	-0.002773390054702759	-0.036293598175048826	0.9802780151367188	-0.018341899871826172	-0.02581649971008301	1.0028900146484374	-0.024629100799560547	0.0025040600299835202	1.0199099731445314	0.015197099685668946	-0.005298860073089599	0.8994420166015625	-0.0031306500434875486	-0.00491609001159668	0.91047998046875	-0.019591299057006836	-0.004638559818267822	0.9260419921875	-0.0307947998046875	-0.0026839299201965334	0.96110498046875	0.011071800231933594	0.03013409996032715	0.8813159790039062	-0.004595970153808594	0.02907670021057129	0.8991890258789063	-0.021029499053955077	0.02633989906311035	0.9213569946289063	-0.03172500038146973	0.02079120063781738	0.9588040161132813	0.015279800415039062	0.04715060043334961	0.8968599853515625	0.000372608989477157	0.04775320053100586	0.9128679809570313	-0.015342700004577636	0.046638599395751955	0.9328839721679687	-0.02435059928894043	0.03957730102539062	0.9642780151367187	0.028042999267578125	0.07701640319824218	0.9396539916992187	0.013659700393676758	0.07153379821777343	0.9504819946289063	0.0009791139960289	0.06541680145263672	0.9605139770507812	-0.014581899642944336	0.05384510040283203	0.976864013671875	-0.04417290115356445	0.028551700592041016	1.034489990234375
47	1.5666666666666667	0.008011289596557617	-0.050219200134277345	0.959677001953125	-0.005167220115661621	-0.0370531005859375	0.9788579711914063	-0.0205580997467041	-0.026539100646972656	1.0016300048828124	-0.025911800384521483	0.00170235002040863	1.019030029296875	0.014560700416564942	-0.0052321100234985355	0.8985059814453125	-0.003825010061264038	-0.0044633598327636715	0.90947900390625	-0.020318500518798827	-0.003975680112838745	0.924947998046875	-0.031560400009155276	-0.002264450073242187	0.9599340209960937	0.012100000381469727	0.030633800506591796	0.881343994140625	-0.003710839986801147	0.0298262996673584	0.8988679809570312	-0.02065169906616211	0.02712649917602539	0.9211119995117187	-0.03174650001525879	0.02127050018310547	0.9580780029296875	0.017091100692749023	0.04716949844360351	0.8974639892578125	0.001919389963150024	0.048139598846435545	0.9131420288085937	-0.014155500411987305	0.04714130020141601	0.933	-0.02397550010681152	0.03973759841918945	0.9639039916992187	0.029574600219726563	0.07606880187988281	0.940531005859375	0.015190500259399414	0.07082520294189452	0.9510859985351563	0.002219300031661987	0.06490200042724609	0.9609539794921875	-0.013873800277709961	0.053439498901367184	0.9771220092773437	-0.044444698333740235	0.028037700653076172	1.0338199462890625
48	1.6	0.0065245099067687985	-0.05035649871826172	0.9580289916992187	-0.006433249950408935	-0.037495899200439456	0.9774559936523437	-0.021542999267578126	-0.02717919921875	1.0004600219726563	-0.026704099655151366	0.0009420989751815791	1.0181799926757813	0.013633899688720703	-0.005211820125579834	0.897635986328125	-0.004889430046081543	-0.0042935900688171385	0.9085360107421875	-0.02156719970703125	-0.003691420078277588	0.9240130004882813	-0.03245220184326172	-0.0022050600051879876	0.95902099609375	0.012941800117492675	0.030580900192260743	0.881541015625	-0.003267760038375854	0.02989620018005371	0.8987730102539062	-0.020568099975585938	0.02736590003967285	0.9204310302734375	-0.03229679870605469	0.02124290084838867	0.95739697265625	0.01793269920349121	0.0467775993347168	0.8975260009765625	0.002553359985351562	0.04784709930419922	0.9131500244140625	-0.013676799774169923	0.04711470031738281	0.9326599731445312	-0.024155000686645507	0.039547901153564456	0.9632789916992187	0.03022800064086914	0.07516739654541016	0.9405499877929687	0.01562779998779297	0.07002279663085938	0.95110400390625	0.002510020017623901	0.06419219970703124	0.9608660278320312	-0.013850399971008301	0.05289839935302734	0.9768930053710938	-0.044861499786376956	0.02745479965209961	1.0333800048828126
49	1.6333333333333333	0.00695186996459961	-0.05012080001831055	0.957051025390625	-0.006293240070343017	-0.037736900329589845	0.9765960083007813	-0.021540300369262695	-0.027718500137329103	0.99975	-0.026542800903320313	0.00018837699294090203	1.0174400024414063	0.01313949966430664	-0.005386449813842773	0.897010986328125	-0.0054899401664733885	-0.004529739856719971	0.9077990112304688	-0.02203339958190918	-0.003990509986877441	0.9232490234375	-0.032929000854492185	-0.002720429897308349	0.9583309936523438	0.011651399612426758	0.030434099197387696	0.8805419921875	-0.004330599784851074	0.029677499771118165	0.897968994140625	-0.021365999221801758	0.0270039005279541	0.9196279907226562	-0.03274100112915039	0.020759700775146484	0.9568720092773437	0.017267499923706055	0.046404701232910156	0.8969539794921875	0.002008510112762451	0.04737710189819336	0.9125399780273438	-0.014282500267028809	0.046618499755859376	0.9319500122070312	-0.0243656005859375	0.039012100219726564	0.9627119750976563	0.030174200057983398	0.07410150146484375	0.9400419921875	0.01558899974822998	0.06915190124511719	0.9505549926757813	0.0024535300731658933	0.06344120025634765	0.9602659912109375	-0.01398840045928955	0.05228789901733399	0.9763200073242188	-0.04462910079956055	0.026692100524902344	1.03268994140625
